<?xml version="1.0" standalone="no"?>
<!DOCTYPE svg PUBLIC "-//W3C//DTD SVG 20010904//EN"
 "http://www.w3.org/TR/2001/REC-SVG-20010904/DTD/svg10.dtd">
<svg version="1.0" xmlns="http://www.w3.org/2000/svg"
 width="700.000000pt" height="700.000000pt" viewBox="0 0 700.000000 700.000000"
 preserveAspectRatio="xMidYMid meet">
<metadata>
Created by potrace 1.14, written by Peter Selinger 2001-2017
</metadata>
<g transform="translate(0.000000,700.000000) scale(0.100000,-0.100000)"
fill="#000000" stroke="none">
<path d="M3335 6993 c-891 -44 -1724 -420 -2343 -1058 -495 -509 -825 -1158
-941 -1850 -36 -216 -45 -336 -45 -590 0 -342 29 -573 109 -880 227 -871 790
-1629 1560 -2101 439 -269 920 -432 1460 -496 145 -17 576 -17 730 0 512 57
1004 221 1431 479 252 152 436 295 652 507 410 402 692 854 872 1395 374 1129
152 2357 -596 3296 -113 141 -388 416 -529 529 -674 537 -1514 811 -2360 769z
m267 -2265 c21 -7 63 -32 95 -55 32 -24 548 -533 1148 -1133 l1090 -1090 -460
0 -460 0 -762 762 -763 763 -182 -183 -183 -182 580 -580 580 -580 -455 0
-455 0 -352 352 -353 353 -353 -353 -352 -352 -460 0 -460 0 1110 1109 c747
746 1126 1118 1159 1137 94 54 194 65 288 32z"/>
</g>
</svg>
