<?xml version="1.0" standalone="no"?>
<!DOCTYPE svg PUBLIC "-//W3C//DTD SVG 20010904//EN"
 "http://www.w3.org/TR/2001/REC-SVG-20010904/DTD/svg10.dtd">
<svg version="1.0" xmlns="http://www.w3.org/2000/svg"
 width="400.000000pt" height="400.000000pt" viewBox="0 0 400.000000 400.000000"
 preserveAspectRatio="xMidYMid meet">
<metadata>
Created by potrace 1.14, written by Peter Selinger 2001-2017
</metadata>
<g transform="translate(0.000000,400.000000) scale(0.100000,-0.100000)"
fill="#000000" stroke="none">
<path d="M1820 3990 c-842 -80 -1547 -680 -1754 -1493 -48 -188 -61 -295 -60
-512 1 -209 14 -313 65 -504 212 -799 898 -1382 1731 -1471 519 -55 1071 114
1473 452 384 323 615 728 701 1233 22 124 24 438 5 575 -122 880 -814 1578
-1691 1704 -137 20 -350 27 -470 16z m293 -1319 c29 -22 329 -317 667 -656
l615 -615 -265 0 -265 0 -435 435 -435 435 -103 -103 -102 -102 332 -333 332
-332 -265 0 -264 0 -200 200 -200 200 -200 -200 -200 -200 -265 0 -265 0 645
643 c358 358 661 651 680 661 58 28 130 16 193 -33z"/>
</g>
</svg>
